<svg id="Capa_1" enable-background="new 0 0 512 512" height="512" viewBox="0 0 512 512" width="512" xmlns="http://www.w3.org/2000/svg"><g><g><path d="m485.884 54.027h-151.395c-12.094-31.554-42.706-54.027-78.489-54.027-35.795 0-66.417 22.473-78.515 54.027h-151.369c-14.4 0-26.116 11.709-26.116 26.101v294.4c0 14.392 11.716 26.101 26.116 26.101h145.555l-20.145 40.802h-16.398c-19.47 0-35.309 15.829-35.309 35.285v25.284c0 5.523 4.477 10 10 10h292.363c5.522 0 10-4.477 10-10v-25.285c0-19.456-15.84-35.285-35.31-35.285h-16.402l-20.164-40.802h145.577c14.4 0 26.116-11.708 26.116-26.101v-294.4c.001-14.391-11.715-26.1-26.115-26.1zm-229.884-34.027c35.305 0 64.027 28.69 64.027 63.955 0 35.28-28.723 63.983-64.027 63.983-35.32 0-64.055-28.703-64.055-63.983 0-35.265 28.735-63.955 64.055-63.955zm136.182 456.715v15.285h-272.363v-15.285c0-8.428 6.868-15.285 15.309-15.285h241.744c8.441.001 15.31 6.857 15.31 15.285zm-54.021-35.284h-164.33l20.145-40.802h124.021zm147.723-60.802h-459.768c-3.373 0-6.116-2.737-6.116-6.101v-21.833h191.056c5.523 0 10-4.477 10-10s-4.477-10-10-10h-191.056v-252.567c0-3.364 2.744-6.101 6.116-6.101h146.436c-.386 3.258-.608 6.567-.608 9.927 0 46.308 37.707 83.983 84.055 83.983 46.333 0 84.027-37.675 84.027-83.983 0-3.361-.221-6.669-.608-9.927h146.464c3.315 0 6.116 2.793 6.116 6.101v252.568h-191.054c-5.522 0-10 4.477-10 10s4.478 10 10 10h191.056v21.833c0 3.363-2.744 6.1-6.116 6.1z"/><path d="m192.33 258.345h-2.653c.143-24.164.224-50.465-.066-54.062-.635-7.436-5.076-13.486-11.312-15.414-6.172-1.911-12.774.525-17.67 6.521-5.724 7.029-33.958 57.979-39.559 68.122-1.711 3.098-1.657 6.869.141 9.917s5.074 4.918 8.612 4.918h39.72c-.049 6.82-.101 13.371-.151 19.252-.047 5.523 4.392 10.038 9.914 10.085h.087c5.482 0 9.951-4.421 9.998-9.915.031-3.572.089-10.664.153-19.423h2.786c5.523 0 10-4.477 10-10s-4.477-10.001-10-10.001zm-22.657 0h-22.854c8.735-15.628 17.305-30.67 22.99-40.254.013 9.994-.046 24.849-.136 40.254z"/><path d="m292.785 225.882c0-20.753-16.896-37.637-37.665-37.637-20.753 0-37.636 16.884-37.636 37.637v44.191c0 20.738 16.883 37.609 37.636 37.609 20.768 0 37.665-16.871 37.665-37.609zm-20 44.192c0 9.709-7.924 17.609-17.665 17.609-9.725 0-17.636-7.899-17.636-17.609v-44.191c0-9.725 7.912-17.637 17.636-17.637 9.741 0 17.665 7.912 17.665 17.637z"/><path d="m319.643 278.345h39.726c-.052 6.82-.104 13.37-.157 19.25-.049 5.522 4.389 10.039 9.911 10.088h.091c5.481 0 9.949-4.419 9.998-9.912.031-3.572.093-10.667.158-19.426h2.809c5.522 0 10-4.477 10-10s-4.478-10-10-10h-2.671c.147-24.17.229-50.479-.076-54.062-.635-7.436-5.075-13.486-11.312-15.414-6.168-1.909-12.773.526-17.67 6.521-5.725 7.029-33.958 57.979-39.56 68.122-1.711 3.098-1.657 6.869.142 9.917 1.796 3.046 5.072 4.916 8.611 4.916zm39.998-60.274c.016 9.99-.045 24.856-.138 40.273h-22.864c8.742-15.64 17.316-30.69 23.002-40.273z"/><path d="m256 85.961c5.522 0 10-4.477 10-10v-24.718c0-5.523-4.478-10-10-10-5.523 0-10 4.477-10 10v24.718c0 5.523 4.477 10 10 10z"/><path d="m256 126.666c5.522 0 10-4.477 10-10v-.057c0-5.523-4.478-9.972-10-9.972-5.523 0-10 4.505-10 10.028s4.477 10.001 10 10.001z"/><path d="m256 332.696c-5.523 0-10 4.477-10 10s4.477 10 10 10h.057c5.522 0 9.972-4.477 9.972-10s-4.507-10-10.029-10z"/></g></g></svg>